<svg width="44" height="44" viewBox="0 0 44 44" fill="none" xmlns="http://www.w3.org/2000/svg">
  <rect x="4" y="4" width="36" height="36" rx="9" fill="#F1C953"/>
  <path d="M25.5 12C26.1 15.1 28 17.1 31 17.5V22C28.8 21.9 26.9 21.2 25.5 19.9V27.2C25.5 31.4 22.5 34 18.5 34C14.7 34 12 31.6 12 28.1C12 24.4 14.9 21.9 18.9 21.9C19.4 21.9 19.9 22 20.3 22.1V26.4C19.8 26.2 19.3 26.1 18.8 26.1C17.2 26.1 16.1 26.9 16.1 28.1C16.1 29.3 17.1 30.1 18.5 30.1C20.2 30.1 21.3 29.1 21.3 27.2V12H25.5Z" fill="#4EA487"/>
</svg>