<svg width="40" height="40" viewBox="0 0 24 24" fill="#F1C953" xmlns="http://www.w3.org/2000/svg">
  <path d="M13.13 22.19L11.5 18.36C13.07 17.78 14.54 16.89 15.84 15.73L13.13 22.19ZM5.64 12.5L1.81 10.87L8.27 8.16C7.11 9.46 6.22 10.93 5.64 12.5ZM21.61 2.39C21.61 2.39 16.66 1.03 11.73 5.96L8.38 9.31C6.56 11.13 5.5 13.35 5.3 15.63L8.37 18.7C10.65 18.5 12.87 17.44 14.69 15.62L18.04 12.27C22.97 7.34 21.61 2.39 21.61 2.39ZM15.5 10C14.67 10 14 9.33 14 8.5C14 7.67 14.67 7 15.5 7C16.33 7 17 7.67 17 8.5C17 9.33 16.33 10 15.5 10ZM4.93 19.07C3.86 18 3.86 16.27 4.93 15.2C6 14.13 7.73 14.13 8.8 15.2C9.87 16.27 9.87 18 8.8 19.07C7.73 20.14 6 20.14 4.93 19.07Z"/>
</svg>